<?xml version="1.0" encoding="utf-8"?>
<!-- Generator: Adobe Illustrator 27.3.1, SVG Export Plug-In . SVG Version: 6.00 Build 0)  -->
<svg version="1.2" baseProfile="tiny" id="Layer_1" xmlns="http://www.w3.org/2000/svg" xmlns:xlink="http://www.w3.org/1999/xlink"
	 x="0px" y="0px" viewBox="0 0 76 100" overflow="visible" xml:space="preserve">
<g>
	<g>
		<g>
			<g>
				<path fill="#24563A" d="M44.7,36.3c0,5.9-3.3,12.6-14.5,12.6h-9.8v-0.6h3v-24h-3v-0.6h9.8C41.4,23.7,44.7,30.4,44.7,36.3z
					 M40.6,36.3c0-3.7-0.9-12-10.3-12h-2.9v24h2.9C39.6,48.4,40.6,40.1,40.6,36.3z"/>
			</g>
		</g>
		<g>
			<g>
				<path fill="#24563A" d="M55.9,71.9l-2.3,7.8H36.2v-0.6h3v-24h-3v-0.6h16.5L55,61h-0.6c-1.7-4.6-4.3-5.9-8.5-5.9h-2.7v11.2h2.2
					c3.7,0,4-1.3,4.2-4.5h0.6v9.6h-0.6c-0.2-3.2-0.5-4.4-4.2-4.4h-2.2v12.1h3.9c4.2,0,6.5-2.5,8.2-7.1H55.9z M49.3,46.6l-4.2,5.6
					h-0.5l1.9-5.6L49.3,46.6z"/>
			</g>
		</g>
	</g>
	<g>
		<g>
			<path fill="#24563A" d="M38,98.6c-20.4,0-37-15.7-37-35V36.4c0-19.3,16.6-35,37-35c20.4,0,37,15.7,37,35v27.2
				C75,82.9,58.4,98.6,38,98.6z M38,2.1C18,2.1,1.7,17.5,1.7,36.4v27.2C1.7,82.5,18,97.9,38,97.9s36.3-15.4,36.3-34.3V36.4
				C74.3,17.5,58,2.1,38,2.1z"/>
		</g>
	</g>
	<g>
		<g>
			<path fill="#24563A" d="M38,95.1C19.6,95.1,4.6,81,4.6,63.6V36.4C4.6,19,19.6,4.9,38,4.9c18.4,0,33.4,14.1,33.4,31.4v27.2
				C71.4,81,56.4,95.1,38,95.1z M38,5.7C20,5.7,5.3,19.4,5.3,36.4v27.2C5.3,80.6,20,94.3,38,94.3s32.7-13.8,32.7-30.7V36.4
				C70.7,19.4,56,5.7,38,5.7z"/>
		</g>
	</g>
</g>
</svg>
