<?xml version="1.0" encoding="utf-8"?>
<!-- Generator: Adobe Illustrator 27.3.1, SVG Export Plug-In . SVG Version: 6.00 Build 0)  -->
<svg version="1.2" baseProfile="tiny" id="Layer_1" xmlns="http://www.w3.org/2000/svg" xmlns:xlink="http://www.w3.org/1999/xlink"
	 x="0px" y="0px" viewBox="0 0 110 110" overflow="visible" xml:space="preserve">
<g>
	<g>
		<g>
			<path fill="#24563A" d="M61.3,42.5c0,5.4-3,11.6-13.2,11.6h-9v-0.6h2.8v-22H39v-0.6h9C58.3,30.9,61.3,37,61.3,42.5z M57.5,42.5
				c0-3.4-0.9-11-9.4-11h-2.6v22h2.6C56.6,53.5,57.5,45.9,57.5,42.5z"/>
		</g>
		<g>
			<path fill="#24563A" d="M71.6,75.1l-2.1,7.1h-16v-0.6h2.8v-22h-2.8v-0.6h15.1l2.1,6h-0.6c-1.6-4.2-3.9-5.5-7.8-5.5h-2.5v10.3h2
				c3.4,0,3.7-1.2,3.9-4.1h0.6v8.8h-0.6c-0.2-2.9-0.5-4.1-3.9-4.1h-2v11.1h3.6c3.8,0,5.9-2.3,7.5-6.5H71.6z M65.5,51.9l-3.9,5.1
				h-0.5l1.8-5.1L65.5,51.9z"/>
		</g>
	</g>
	<g>
		<path fill="#24563A" d="M55.1,99.5c-18.7,0-33.9-14.4-33.9-32.1V42.5c0-17.7,15.2-32.1,33.9-32.1C73.8,10.5,89,24.8,89,42.5v24.9
			C89,85.1,73.8,99.5,55.1,99.5z M55.1,11.1c-18.3,0-33.2,14.1-33.2,31.4v24.9c0,17.3,14.9,31.4,33.2,31.4s33.2-14.1,33.2-31.4V42.5
			C88.4,25.2,73.5,11.1,55.1,11.1z"/>
	</g>
	<g>
		<path fill="#24563A" d="M55.1,96.3c-16.9,0-30.6-12.9-30.6-28.8V42.5c0-15.9,13.7-28.8,30.6-28.8c16.9,0,30.6,12.9,30.6,28.8v24.9
			C85.8,83.4,72,96.3,55.1,96.3z M55.1,14.4c-16.5,0-30,12.6-30,28.1v24.9c0,15.5,13.4,28.1,30,28.1s30-12.6,30-28.1V42.5
			C85.1,27,71.7,14.4,55.1,14.4z"/>
	</g>
</g>
</svg>
