<?xml version="1.0" encoding="utf-8"?>
<!-- Generator: Adobe Illustrator 27.3.1, SVG Export Plug-In . SVG Version: 6.00 Build 0)  -->
<svg version="1.2" baseProfile="tiny" id="Layer_1" xmlns="http://www.w3.org/2000/svg" xmlns:xlink="http://www.w3.org/1999/xlink"
	 x="0px" y="0px" viewBox="0 0 110 110" overflow="visible" xml:space="preserve">
<g>
	<g>
		<path fill="#FFFFFF" d="M21.5,87.7v0.6H16v-2.7c-0.8,1.5-2.3,3.1-4.8,3.1c-4.4,0-7.8-3.6-7.8-7.7s3.4-7.7,7.8-7.7
			c2.5,0,4.1,1.5,4.8,3.1v-9.7h-2.3V66h5.5v21.7H21.5z M16,78.6c0-1.8-1.5-4.7-4.8-4.7c-3.8,0-4.5,4.6-4.5,7.1
			c0,2.5,0.7,7.1,4.5,7.1c3.4,0,4.8-2.9,4.8-4.7V78.6z"/>
		<path fill="#FFFFFF" d="M36.3,84.7h0.6c-0.4,0.9-2.4,3.9-6.6,3.9c-4.4,0-7.8-3.6-7.8-7.7s3.4-7.7,7.8-7.7c4.2,0,7.1,3.2,7.1,7.1
			H25.8c0,0.2,0,0.4,0,0.6c0,2.5,0.7,7.1,4.5,7.1C34.2,88.1,36,85.4,36.3,84.7z M25.8,79.8h8.2c-0.2-2.5-1-5.9-3.8-5.9
			C27,73.9,26.1,77.2,25.8,79.8z"/>
		<path fill="#FFFFFF" d="M50,84.4c0,2.5-2.3,4.3-5.7,4.3c-0.6,0-1.5-0.2-2-0.3h-2.1l-1.5-4.5h0.5c1.1,2.9,2.9,4.2,5,4.2
			c2.3,0,3.4-1.3,3.4-2.7c0-1.5-1.4-2.4-3.9-3.5c-3.4-1.5-4.1-2.7-4.1-4.6c0-2.3,2-3.9,4.6-3.9c0.8,0,1.3,0.1,1.8,0.3h2l1.3,3.8
			h-0.5c-0.9-2.5-2.4-3.6-4.5-3.6c-2.2,0-2.7,1.6-2.7,2.3c0,1.2,0.8,1.9,2.9,2.7C49,80.5,50,82.2,50,84.4z"/>
		<path fill="#FFFFFF" d="M62.4,84.4c0,2.5-2.3,4.3-5.7,4.3c-0.6,0-1.5-0.2-2-0.3h-2.1L51,83.9h0.5c1.1,2.9,2.9,4.2,5,4.2
			c2.3,0,3.4-1.3,3.4-2.7c0-1.5-1.4-2.4-3.9-3.5c-3.4-1.5-4.1-2.7-4.1-4.6c0-2.3,2-3.9,4.6-3.9c0.8,0,1.3,0.1,1.8,0.3h2l1.3,3.8
			h-0.5c-0.9-2.5-2.4-3.6-4.5-3.6c-2.2,0-2.7,1.6-2.7,2.3c0,1.2,0.8,1.9,2.9,2.7C61.3,80.5,62.4,82.2,62.4,84.4z"/>
		<path fill="#FFFFFF" d="M71.4,87.7v0.6h-7.8v-0.6h2.3V74.2h-2.3v-0.6h5.5v14.1H71.4z M65.6,69.3c0-1.1,0.8-1.9,1.9-1.9
			c1.1,0,1.9,0.8,1.9,1.9c0,1.1-0.8,1.9-1.9,1.9C66.5,71.2,65.6,70.3,65.6,69.3z"/>
		<path fill="#FFFFFF" d="M90.7,87.7v0.6h-7.8v-0.6h2.3V78c0-1.8-0.1-4.2-2.5-4.2c-3.4,0-4.4,4.1-4.4,5.9v8h2.3v0.6h-7.8v-0.6H75
			V74.2h-2.3v-0.6h5.5v3.3c0.7-2,2.1-3.6,5-3.6c2.5,0,5.1,1.2,5.1,5.6v8.9H90.7z"/>
		<path fill="#FFFFFF" d="M105.7,84.7h0.6c-0.4,0.9-2.4,3.9-6.6,3.9c-4.4,0-7.8-3.6-7.8-7.7s3.4-7.7,7.8-7.7c4.2,0,7.1,3.2,7.1,7.1
			H95.3c0,0.2,0,0.4,0,0.6c0,2.5,0.7,7.1,4.5,7.1C103.7,88.1,105.4,85.4,105.7,84.7z M95.3,79.8h8.2c-0.2-2.5-1-5.9-3.8-5.9
			C96.5,73.9,95.5,77.2,95.3,79.8z M102.9,66.4l-3.7,4.9h-0.5l1.7-4.9L102.9,66.4z"/>
	</g>
	<g>
		<path fill="#FFFFFF" d="M15,99.7c0.2,0,0.5,0.1,0.7,0.2c0.2,0.1,0.3,0.3,0.4,0.6l-0.1,0.1c-0.1-0.2-0.2-0.4-0.3-0.5
			c-0.2-0.1-0.3-0.2-0.6-0.2c-0.3,0-0.6,0.2-0.8,0.5c-0.2,0.3-0.3,0.8-0.3,1.5c0,0.4,0,0.8,0.1,1.1c0.1,0.3,0.2,0.5,0.4,0.6
			c0.2,0.1,0.4,0.2,0.6,0.2c0.2,0,0.4-0.1,0.6-0.3s0.3-0.5,0.3-0.8l0.1,0.1c0,0.4-0.2,0.7-0.4,0.9c-0.2,0.2-0.5,0.3-0.9,0.3
			c-0.3,0-0.6-0.1-0.9-0.2c-0.2-0.2-0.4-0.4-0.6-0.7c-0.1-0.3-0.2-0.7-0.2-1.2c0-0.5,0.1-0.9,0.3-1.2c0.2-0.3,0.4-0.6,0.7-0.7
			C14.3,99.8,14.6,99.7,15,99.7z M16.6,97.7v5.4c0,0.2,0,0.4,0.1,0.5c0.1,0.1,0.2,0.2,0.5,0.2v0.2c-0.2,0-0.3,0-0.5,0
			c-0.2,0-0.3,0-0.4,0c-0.1,0-0.3,0-0.4,0.1v-5.4c0-0.2,0-0.4-0.1-0.5S15.5,98,15.3,98v-0.2c0.2,0,0.3,0,0.5,0c0.2,0,0.3,0,0.4,0
			C16.4,97.8,16.5,97.7,16.6,97.7z"/>
		<path fill="#FFFFFF" d="M20.1,99.7c0.1,0,0.3,0,0.4,0.1c0.1,0.1,0.2,0.1,0.3,0.2c0.1,0.1,0.1,0.2,0.1,0.3c0,0.1,0,0.2-0.1,0.4
			s-0.2,0.2-0.3,0.2c-0.1,0-0.2,0-0.3-0.1c-0.1-0.1-0.1-0.2-0.1-0.3c0-0.1,0-0.2,0.1-0.3c0.1-0.1,0.1-0.1,0.2-0.2
			c0-0.1-0.1-0.1-0.2-0.1c-0.2,0-0.4,0.1-0.6,0.3c-0.2,0.2-0.3,0.4-0.4,0.6c-0.1,0.2-0.1,0.4-0.1,0.6v1.7c0,0.3,0.1,0.4,0.2,0.5
			c0.2,0.1,0.4,0.1,0.6,0.1v0.2c-0.1,0-0.3,0-0.5,0c-0.2,0-0.5,0-0.7,0c-0.2,0-0.4,0-0.5,0c-0.2,0-0.3,0-0.4,0v-0.2
			c0.2,0,0.4,0,0.5-0.1c0.1-0.1,0.1-0.2,0.1-0.5v-2.5c0-0.2,0-0.4-0.1-0.5c-0.1-0.1-0.2-0.2-0.5-0.2v-0.2c0.2,0,0.3,0,0.5,0
			c0.2,0,0.3,0,0.4,0c0.1,0,0.3,0,0.4-0.1v1c0.1-0.2,0.1-0.3,0.3-0.5s0.2-0.3,0.4-0.4C19.8,99.8,19.9,99.7,20.1,99.7z"/>
		<path fill="#FFFFFF" d="M22.2,104c-0.3,0-0.6-0.1-0.8-0.3c-0.2-0.2-0.2-0.4-0.2-0.7c0-0.2,0.1-0.4,0.2-0.6
			c0.1-0.1,0.2-0.3,0.4-0.4c0.2-0.1,0.3-0.2,0.5-0.2c0.2-0.1,0.4-0.1,0.5-0.2c0.2-0.1,0.3-0.1,0.4-0.2c0.1-0.1,0.2-0.2,0.2-0.3v-0.5
			c0-0.2,0-0.4-0.1-0.5c-0.1-0.1-0.2-0.2-0.3-0.2c-0.1,0-0.2-0.1-0.4-0.1c-0.1,0-0.3,0-0.4,0.1c-0.2,0-0.3,0.1-0.4,0.2
			c0.1,0,0.2,0.1,0.3,0.2c0.1,0.1,0.1,0.2,0.1,0.3c0,0.1,0,0.2-0.1,0.3c-0.1,0.1-0.2,0.1-0.3,0.1c-0.2,0-0.3,0-0.3-0.1
			c-0.1-0.1-0.1-0.2-0.1-0.3c0-0.1,0-0.2,0.1-0.3c0.1-0.1,0.2-0.2,0.3-0.2c0.1-0.1,0.3-0.2,0.5-0.2s0.4-0.1,0.7-0.1
			c0.2,0,0.4,0,0.6,0.1c0.2,0.1,0.3,0.1,0.4,0.2c0.1,0.1,0.2,0.3,0.3,0.5c0,0.2,0.1,0.4,0.1,0.7v2.2c0,0.1,0,0.2,0.1,0.3
			s0.1,0.1,0.2,0.1c0.1,0,0.1,0,0.2,0c0.1,0,0.1-0.1,0.2-0.1l0.1,0.1c-0.1,0.1-0.2,0.2-0.3,0.2c-0.1,0.1-0.2,0.1-0.4,0.1
			c-0.3,0-0.5-0.1-0.5-0.2c-0.1-0.1-0.1-0.3-0.1-0.5c-0.2,0.3-0.4,0.5-0.6,0.6C22.7,104,22.5,104,22.2,104z M22.6,103.7
			c0.2,0,0.3,0,0.5-0.1c0.2-0.1,0.3-0.2,0.4-0.5v-1.6c-0.1,0.1-0.2,0.2-0.4,0.3c-0.2,0.1-0.3,0.1-0.5,0.2c-0.2,0.1-0.3,0.2-0.5,0.3
			c-0.1,0.1-0.2,0.3-0.2,0.6c0,0.2,0.1,0.4,0.2,0.5S22.4,103.7,22.6,103.7z"/>
		<path fill="#FFFFFF" d="M26.6,99.8v0.2c-0.1,0-0.2,0-0.3,0c-0.1,0-0.2,0.1-0.2,0.2c0,0.1,0,0.2,0.1,0.5l0.8,2.4l-0.1,0l1.2-3.2
			l0.2,0.1l-1.5,4.1c0,0,0,0-0.1,0c0,0,0,0-0.1,0l-1.3-3.5c-0.1-0.2-0.2-0.3-0.3-0.4c-0.1,0-0.2-0.1-0.2-0.1v-0.2c0.1,0,0.2,0,0.3,0
			c0.1,0,0.2,0,0.4,0c0.2,0,0.3,0,0.5,0C26.3,99.9,26.4,99.9,26.6,99.8z M31,99.8v0.2c-0.1,0-0.2,0.1-0.3,0.1
			c-0.1,0.1-0.2,0.2-0.2,0.4l-1.2,3.4c0,0,0,0-0.1,0c0,0,0,0-0.1,0l-1.3-3.3l0.2-0.9c0,0,0.1,0,0.1,0c0,0,0.1,0,0.1,0l1.2,3.3
			l-0.1,0l0.8-2.4c0.1-0.3,0.1-0.5,0-0.6c-0.1-0.1-0.3-0.2-0.5-0.2v-0.2c0.1,0,0.2,0,0.2,0c0.1,0,0.1,0,0.2,0c0.1,0,0.1,0,0.2,0
			c0.1,0,0.2,0,0.3,0C30.8,99.9,30.9,99.9,31,99.8z"/>
		<path fill="#FFFFFF" d="M32.6,99.8v3.4c0,0.2,0,0.4,0.1,0.5c0.1,0.1,0.2,0.1,0.5,0.1v0.2c-0.1,0-0.2,0-0.4,0c-0.2,0-0.4,0-0.6,0
			c-0.2,0-0.4,0-0.5,0c-0.2,0-0.3,0-0.4,0v-0.2c0.2,0,0.4,0,0.5-0.1c0.1-0.1,0.1-0.2,0.1-0.5v-2.5c0-0.2,0-0.4-0.1-0.5
			c-0.1-0.1-0.2-0.2-0.5-0.2v-0.2c0.2,0,0.3,0,0.5,0c0.2,0,0.3,0,0.4,0C32.3,99.8,32.4,99.8,32.6,99.8z M32.1,97.9
			c0.1,0,0.3,0.1,0.4,0.2c0.1,0.1,0.2,0.2,0.2,0.4c0,0.1-0.1,0.3-0.2,0.4c-0.1,0.1-0.2,0.2-0.4,0.2c-0.1,0-0.3-0.1-0.4-0.2
			c-0.1-0.1-0.2-0.2-0.2-0.4c0-0.1,0.1-0.3,0.2-0.4S32,97.9,32.1,97.9z"/>
		<path fill="#FFFFFF" d="M36.2,99.7c0.2,0,0.4,0,0.5,0.1s0.2,0.1,0.3,0.2c0.1,0.1,0.2,0.2,0.2,0.4c0,0.2,0.1,0.4,0.1,0.6v2.1
			c0,0.2,0,0.4,0.1,0.5c0.1,0.1,0.2,0.1,0.5,0.1v0.2c-0.1,0-0.2,0-0.4,0c-0.2,0-0.4,0-0.5,0c-0.2,0-0.3,0-0.5,0c-0.2,0-0.3,0-0.4,0
			v-0.2c0.2,0,0.3,0,0.4-0.1c0.1-0.1,0.1-0.2,0.1-0.5v-2.3c0-0.2,0-0.3,0-0.5c0-0.1-0.1-0.2-0.2-0.3c-0.1-0.1-0.2-0.1-0.4-0.1
			c-0.3,0-0.6,0.1-0.8,0.4c-0.2,0.3-0.3,0.6-0.3,1v1.8c0,0.2,0,0.4,0.1,0.5c0.1,0.1,0.2,0.1,0.4,0.1v0.2c-0.1,0-0.2,0-0.4,0
			c-0.2,0-0.3,0-0.5,0c-0.2,0-0.4,0-0.5,0c-0.2,0-0.3,0-0.4,0v-0.2c0.2,0,0.4,0,0.5-0.1c0.1-0.1,0.1-0.2,0.1-0.5v-2.5
			c0-0.2,0-0.4-0.1-0.5c-0.1-0.1-0.2-0.2-0.5-0.2v-0.2c0.2,0,0.3,0,0.5,0c0.2,0,0.3,0,0.4,0c0.1,0,0.3,0,0.4-0.1v0.9
			c0.1-0.4,0.3-0.6,0.6-0.8C35.7,99.8,36,99.7,36.2,99.7z"/>
		<path fill="#FFFFFF" d="M39.7,105.4c-0.3,0-0.5,0-0.8-0.1c-0.2-0.1-0.4-0.2-0.6-0.3c-0.2-0.1-0.2-0.3-0.2-0.5
			c0-0.2,0.1-0.3,0.2-0.5c0.1-0.1,0.4-0.2,0.6-0.3l0,0.1c-0.1,0-0.2,0.1-0.3,0.2c-0.1,0.1-0.1,0.2-0.1,0.4c0,0.2,0.1,0.4,0.3,0.6
			c0.2,0.1,0.5,0.2,0.9,0.2c0.2,0,0.5,0,0.7-0.1c0.2-0.1,0.4-0.2,0.6-0.3s0.2-0.3,0.2-0.6c0-0.2-0.1-0.3-0.2-0.4
			c-0.1-0.1-0.4-0.2-0.7-0.2h-0.6c-0.2,0-0.3,0-0.5,0s-0.3-0.1-0.4-0.2c-0.1-0.1-0.2-0.2-0.2-0.4c0-0.2,0.1-0.4,0.2-0.5
			c0.1-0.2,0.4-0.3,0.8-0.5l0.1,0.1c-0.2,0.1-0.3,0.2-0.5,0.3c-0.1,0.1-0.2,0.2-0.2,0.3c0,0.2,0.1,0.3,0.4,0.3h1
			c0.3,0,0.6,0.1,0.9,0.2c0.3,0.1,0.4,0.4,0.4,0.7c0,0.2-0.1,0.5-0.2,0.7c-0.2,0.2-0.4,0.4-0.7,0.5S40.2,105.4,39.7,105.4z
			 M39.7,102.3c-0.4,0-0.7-0.1-1-0.3c-0.3-0.2-0.4-0.5-0.4-1c0-0.4,0.1-0.8,0.4-1c0.3-0.2,0.6-0.3,1-0.3c0.4,0,0.7,0.1,1,0.3
			c0.3,0.2,0.4,0.5,0.4,1c0,0.4-0.1,0.8-0.4,1C40.5,102.2,40.1,102.3,39.7,102.3z M39.7,102.1c0.2,0,0.4-0.1,0.5-0.2
			c0.1-0.2,0.2-0.5,0.2-0.9c0-0.4-0.1-0.7-0.2-0.9c-0.1-0.2-0.3-0.2-0.5-0.2c-0.2,0-0.4,0.1-0.5,0.2c-0.1,0.2-0.2,0.5-0.2,0.9
			c0,0.4,0.1,0.7,0.2,0.9C39.4,102,39.5,102.1,39.7,102.1z M40.9,100.4l-0.1-0.1c0.1-0.2,0.2-0.3,0.4-0.5c0.2-0.1,0.4-0.2,0.6-0.2
			c0.1,0,0.2,0,0.3,0.1c0.1,0.1,0.1,0.2,0.1,0.3c0,0.2,0,0.3-0.1,0.3c-0.1,0.1-0.2,0.1-0.3,0.1c-0.1,0-0.2,0-0.2-0.1
			c-0.1-0.1-0.1-0.1-0.1-0.3c0-0.1,0-0.3,0.1-0.5l0.1,0c-0.2,0.1-0.4,0.2-0.5,0.3C41.1,100.1,41,100.2,40.9,100.4z"/>
		<path fill="#FFFFFF" d="M47.9,99.8v0.2c-0.1,0-0.2,0.1-0.3,0.1c-0.1,0.1-0.2,0.2-0.2,0.4l-1.3,3.4H46l-1.5-3.5
			c-0.1-0.2-0.2-0.3-0.3-0.4c-0.1,0-0.2-0.1-0.2-0.1v-0.2c0.1,0,0.2,0,0.4,0c0.1,0,0.3,0,0.4,0c0.2,0,0.3,0,0.5,0c0.2,0,0.4,0,0.5,0
			v0.2c-0.1,0-0.3,0-0.4,0c-0.1,0-0.2,0.1-0.2,0.2c0,0.1,0,0.3,0.1,0.5l1,2.4l0,0l0.9-2.4c0.1-0.3,0.1-0.5,0-0.6
			c-0.1-0.1-0.3-0.2-0.5-0.2v-0.2c0.1,0,0.3,0,0.3,0c0.1,0,0.2,0,0.3,0s0.2,0,0.3,0S47.8,99.9,47.9,99.8z M46.1,104l-0.3,0.7
			c-0.1,0.3-0.2,0.4-0.3,0.6c-0.1,0.1-0.2,0.1-0.3,0.2c-0.1,0-0.2,0-0.3,0c-0.1,0-0.2,0-0.3-0.1c-0.1,0-0.1-0.1-0.2-0.2
			c0-0.1-0.1-0.2-0.1-0.3c0-0.1,0-0.2,0.1-0.3c0.1-0.1,0.2-0.1,0.3-0.1c0.1,0,0.2,0,0.3,0.1c0.1,0.1,0.1,0.2,0.1,0.3
			c0,0.1,0,0.2-0.1,0.2c0,0.1-0.1,0.1-0.2,0.1c0,0,0,0,0,0c0,0,0,0,0,0c0.1,0,0.3,0,0.4-0.1c0.1-0.1,0.2-0.3,0.3-0.5l0.3-0.7
			L46.1,104z"/>
		<path fill="#FFFFFF" d="M50.1,99.7c0.3,0,0.6,0.1,0.9,0.2s0.5,0.4,0.6,0.7c0.2,0.3,0.2,0.7,0.2,1.2s-0.1,0.9-0.2,1.2
			c-0.2,0.3-0.4,0.5-0.6,0.7s-0.6,0.2-0.9,0.2c-0.3,0-0.6-0.1-0.9-0.2s-0.5-0.4-0.7-0.7c-0.2-0.3-0.2-0.7-0.2-1.2s0.1-0.9,0.2-1.2
			c0.2-0.3,0.4-0.6,0.7-0.7S49.8,99.7,50.1,99.7z M50.1,99.9c-0.3,0-0.6,0.2-0.7,0.5s-0.3,0.8-0.3,1.5c0,0.7,0.1,1.2,0.3,1.5
			c0.2,0.3,0.4,0.5,0.7,0.5c0.3,0,0.6-0.2,0.7-0.5c0.2-0.3,0.3-0.8,0.3-1.5c0-0.7-0.1-1.2-0.3-1.5C50.7,100.1,50.4,99.9,50.1,99.9z"
			/>
		<path fill="#FFFFFF" d="M56.1,99.8v3.3c0,0.2,0,0.4,0.1,0.5c0.1,0.1,0.2,0.2,0.5,0.2v0.2c-0.2,0-0.3,0-0.5,0c-0.2,0-0.3,0-0.4,0
			c-0.1,0-0.3,0-0.4,0.1v-0.9c-0.1,0.3-0.3,0.6-0.6,0.7c-0.2,0.1-0.5,0.2-0.7,0.2c-0.2,0-0.3,0-0.5-0.1c-0.1-0.1-0.3-0.1-0.3-0.2
			c-0.1-0.1-0.2-0.2-0.2-0.4c0-0.2-0.1-0.4-0.1-0.6v-2c0-0.2,0-0.4-0.1-0.5c-0.1-0.1-0.2-0.2-0.5-0.2v-0.2c0.2,0,0.3,0,0.5,0
			c0.2,0,0.3,0,0.4,0c0.1,0,0.3,0,0.4-0.1v3.1c0,0.2,0,0.3,0,0.5c0,0.1,0.1,0.2,0.2,0.3c0.1,0.1,0.2,0.1,0.4,0.1
			c0.3,0,0.6-0.1,0.8-0.4c0.2-0.3,0.3-0.6,0.3-1v-1.6c0-0.2,0-0.4-0.1-0.5c-0.1-0.1-0.2-0.2-0.5-0.2v-0.2c0.2,0,0.3,0,0.5,0
			c0.2,0,0.3,0,0.4,0C55.9,99.8,56,99.8,56.1,99.8z"/>
		<path fill="#FFFFFF" d="M59.6,99.7c0.1,0,0.3,0,0.4,0.1c0.1,0.1,0.2,0.1,0.3,0.2c0.1,0.1,0.1,0.2,0.1,0.3c0,0.1,0,0.2-0.1,0.4
			c-0.1,0.1-0.2,0.2-0.3,0.2c-0.1,0-0.2,0-0.3-0.1c-0.1-0.1-0.1-0.2-0.1-0.3c0-0.1,0-0.2,0.1-0.3c0.1-0.1,0.1-0.1,0.2-0.2
			c0-0.1-0.1-0.1-0.2-0.1c-0.2,0-0.4,0.1-0.6,0.3c-0.2,0.2-0.3,0.4-0.4,0.6c-0.1,0.2-0.1,0.4-0.1,0.6v1.7c0,0.3,0.1,0.4,0.2,0.5
			c0.2,0.1,0.4,0.1,0.6,0.1v0.2c-0.1,0-0.3,0-0.5,0c-0.2,0-0.5,0-0.7,0c-0.2,0-0.4,0-0.5,0c-0.2,0-0.3,0-0.4,0v-0.2
			c0.2,0,0.4,0,0.5-0.1c0.1-0.1,0.1-0.2,0.1-0.5v-2.5c0-0.2,0-0.4-0.1-0.5c-0.1-0.1-0.2-0.2-0.5-0.2v-0.2c0.2,0,0.3,0,0.5,0
			c0.2,0,0.3,0,0.4,0c0.1,0,0.3,0,0.4-0.1v1c0.1-0.2,0.1-0.3,0.3-0.5s0.2-0.3,0.4-0.4C59.3,99.8,59.4,99.7,59.6,99.7z"/>
		<path fill="#FFFFFF" d="M65.1,99.7c0.2,0,0.3,0,0.5,0.1c0.1,0.1,0.3,0.1,0.3,0.2c0.1,0.1,0.2,0.2,0.2,0.4c0,0.2,0.1,0.4,0.1,0.6
			v2.1c0,0.2,0,0.4,0.1,0.5c0.1,0.1,0.2,0.1,0.5,0.1v0.2c-0.1,0-0.2,0-0.4,0c-0.2,0-0.4,0-0.5,0c-0.2,0-0.3,0-0.5,0
			c-0.2,0-0.3,0-0.4,0v-0.2c0.2,0,0.3,0,0.4-0.1c0.1-0.1,0.1-0.2,0.1-0.5v-2.3c0-0.2,0-0.3,0-0.5c0-0.1-0.1-0.2-0.2-0.3
			c-0.1-0.1-0.2-0.1-0.4-0.1c-0.2,0-0.4,0.1-0.6,0.2s-0.3,0.3-0.4,0.5c-0.1,0.2-0.1,0.5-0.1,0.7v1.8c0,0.2,0,0.4,0.1,0.5
			c0.1,0.1,0.2,0.1,0.4,0.1v0.2c-0.1,0-0.2,0-0.4,0c-0.2,0-0.3,0-0.5,0c-0.2,0-0.4,0-0.5,0c-0.2,0-0.3,0-0.4,0v-0.2
			c0.2,0,0.4,0,0.5-0.1c0.1-0.1,0.1-0.2,0.1-0.5v-2.5c0-0.2,0-0.4-0.1-0.5c-0.1-0.1-0.2-0.2-0.5-0.2v-0.2c0.2,0,0.3,0,0.5,0
			c0.2,0,0.3,0,0.4,0c0.1,0,0.3,0,0.4-0.1v0.9c0.1-0.3,0.3-0.6,0.6-0.7C64.6,99.8,64.9,99.7,65.1,99.7z M67.5,99.7
			c0.2,0,0.3,0,0.5,0.1c0.1,0.1,0.3,0.1,0.3,0.2c0.1,0.1,0.2,0.2,0.2,0.4c0,0.2,0.1,0.4,0.1,0.6v2.1c0,0.2,0,0.4,0.1,0.5
			c0.1,0.1,0.2,0.1,0.5,0.1v0.2c-0.1,0-0.2,0-0.4,0c-0.2,0-0.4,0-0.5,0s-0.3,0-0.5,0c-0.2,0-0.3,0-0.4,0v-0.2c0.2,0,0.3,0,0.4-0.1
			c0.1-0.1,0.1-0.2,0.1-0.5v-2.3c0-0.2,0-0.3,0-0.5c0-0.1-0.1-0.2-0.2-0.3c-0.1-0.1-0.2-0.1-0.4-0.1c-0.3,0-0.6,0.1-0.8,0.4
			c-0.2,0.3-0.3,0.6-0.3,1l0-0.7c0.1-0.4,0.3-0.6,0.6-0.8S67.3,99.7,67.5,99.7z"/>
		<path fill="#FFFFFF" d="M71.5,99.7c0.3,0,0.6,0.1,0.9,0.2s0.5,0.4,0.6,0.7c0.2,0.3,0.2,0.7,0.2,1.2s-0.1,0.9-0.2,1.2
			c-0.2,0.3-0.4,0.5-0.6,0.7s-0.6,0.2-0.9,0.2c-0.3,0-0.6-0.1-0.9-0.2c-0.3-0.1-0.5-0.4-0.7-0.7c-0.2-0.3-0.2-0.7-0.2-1.2
			s0.1-0.9,0.2-1.2c0.2-0.3,0.4-0.6,0.7-0.7C70.9,99.8,71.2,99.7,71.5,99.7z M71.5,99.9c-0.3,0-0.6,0.2-0.7,0.5
			c-0.2,0.3-0.3,0.8-0.3,1.5c0,0.7,0.1,1.2,0.3,1.5c0.2,0.3,0.4,0.5,0.7,0.5s0.6-0.2,0.7-0.5c0.2-0.3,0.3-0.8,0.3-1.5
			c0-0.7-0.1-1.2-0.3-1.5C72.1,100.1,71.8,99.9,71.5,99.9z"/>
		<path fill="#FFFFFF" d="M76.6,99.7c0.2,0,0.3,0,0.5,0.1c0.1,0.1,0.3,0.1,0.3,0.2c0.1,0.1,0.2,0.2,0.2,0.4c0,0.2,0.1,0.4,0.1,0.6
			v2.1c0,0.2,0,0.4,0.1,0.5c0.1,0.1,0.2,0.1,0.5,0.1v0.2c-0.1,0-0.2,0-0.4,0c-0.2,0-0.4,0-0.5,0c-0.2,0-0.3,0-0.5,0
			c-0.2,0-0.3,0-0.4,0v-0.2c0.2,0,0.3,0,0.4-0.1c0.1-0.1,0.1-0.2,0.1-0.5v-2.3c0-0.2,0-0.3,0-0.5c0-0.1-0.1-0.2-0.2-0.3
			c-0.1-0.1-0.2-0.1-0.4-0.1c-0.2,0-0.4,0.1-0.6,0.2s-0.3,0.3-0.4,0.5c-0.1,0.2-0.1,0.5-0.1,0.7v1.8c0,0.2,0,0.4,0.1,0.5
			c0.1,0.1,0.2,0.1,0.4,0.1v0.2c-0.1,0-0.2,0-0.4,0c-0.2,0-0.3,0-0.5,0c-0.2,0-0.4,0-0.5,0c-0.2,0-0.3,0-0.4,0v-0.2
			c0.2,0,0.4,0,0.5-0.1c0.1-0.1,0.1-0.2,0.1-0.5v-2.5c0-0.2,0-0.4-0.1-0.5c-0.1-0.1-0.2-0.2-0.5-0.2v-0.2c0.2,0,0.3,0,0.5,0
			c0.2,0,0.3,0,0.4,0c0.1,0,0.3,0,0.4-0.1v0.9c0.1-0.3,0.3-0.6,0.6-0.7C76.1,99.8,76.3,99.7,76.6,99.7z M78.9,99.7
			c0.2,0,0.3,0,0.5,0.1c0.1,0.1,0.3,0.1,0.3,0.2c0.1,0.1,0.2,0.2,0.2,0.4c0,0.2,0.1,0.4,0.1,0.6v2.1c0,0.2,0,0.4,0.1,0.5
			c0.1,0.1,0.2,0.1,0.5,0.1v0.2c-0.1,0-0.2,0-0.4,0c-0.2,0-0.4,0-0.5,0s-0.3,0-0.5,0c-0.2,0-0.3,0-0.4,0v-0.2c0.2,0,0.3,0,0.4-0.1
			c0.1-0.1,0.1-0.2,0.1-0.5v-2.3c0-0.2,0-0.3,0-0.5c0-0.1-0.1-0.2-0.2-0.3c-0.1-0.1-0.2-0.1-0.4-0.1c-0.3,0-0.6,0.1-0.8,0.4
			c-0.2,0.3-0.3,0.6-0.3,1l0-0.7c0.1-0.4,0.3-0.6,0.6-0.8C78.4,99.8,78.7,99.7,78.9,99.7z"/>
		<path fill="#FFFFFF" d="M82.9,99.7c0.5,0,0.8,0.1,1.1,0.4c0.3,0.3,0.4,0.7,0.4,1.3h-2.8l0-0.2h2.1c0-0.3,0-0.5-0.1-0.7
			c-0.1-0.2-0.1-0.4-0.3-0.5c-0.1-0.1-0.3-0.2-0.4-0.2c-0.2,0-0.5,0.1-0.6,0.4c-0.2,0.2-0.3,0.6-0.3,1.2l0,0c0,0.1,0,0.2,0,0.3
			c0,0.1,0,0.2,0,0.3c0,0.4,0.1,0.7,0.2,0.9c0.1,0.3,0.3,0.5,0.5,0.6c0.2,0.1,0.4,0.2,0.6,0.2c0.2,0,0.5-0.1,0.7-0.2
			c0.2-0.1,0.4-0.3,0.5-0.6l0.2,0.1c-0.1,0.2-0.2,0.3-0.3,0.5c-0.1,0.2-0.3,0.3-0.5,0.4c-0.2,0.1-0.4,0.2-0.7,0.2
			c-0.4,0-0.7-0.1-1-0.3c-0.3-0.2-0.5-0.4-0.6-0.7c-0.1-0.3-0.2-0.7-0.2-1.1c0-0.5,0.1-0.9,0.2-1.2c0.1-0.3,0.4-0.6,0.6-0.8
			S82.6,99.7,82.9,99.7z"/>
		<path fill="#FFFFFF" d="M87.7,99.7c0.2,0,0.4,0,0.5,0.1s0.2,0.1,0.3,0.2c0.1,0.1,0.2,0.2,0.2,0.4c0,0.2,0.1,0.4,0.1,0.6v2.1
			c0,0.2,0,0.4,0.1,0.5c0.1,0.1,0.2,0.1,0.5,0.1v0.2c-0.1,0-0.2,0-0.4,0c-0.2,0-0.4,0-0.5,0c-0.2,0-0.3,0-0.5,0c-0.2,0-0.3,0-0.4,0
			v-0.2c0.2,0,0.3,0,0.4-0.1c0.1-0.1,0.1-0.2,0.1-0.5v-2.3c0-0.2,0-0.3,0-0.5c0-0.1-0.1-0.2-0.2-0.3c-0.1-0.1-0.2-0.1-0.4-0.1
			c-0.3,0-0.6,0.1-0.8,0.4c-0.2,0.3-0.3,0.6-0.3,1v1.8c0,0.2,0,0.4,0.1,0.5c0.1,0.1,0.2,0.1,0.4,0.1v0.2c-0.1,0-0.2,0-0.4,0
			c-0.2,0-0.3,0-0.5,0c-0.2,0-0.4,0-0.5,0c-0.2,0-0.3,0-0.4,0v-0.2c0.2,0,0.4,0,0.5-0.1c0.1-0.1,0.1-0.2,0.1-0.5v-2.5
			c0-0.2,0-0.4-0.1-0.5c-0.1-0.1-0.2-0.2-0.5-0.2v-0.2c0.2,0,0.3,0,0.5,0c0.2,0,0.3,0,0.4,0c0.1,0,0.3,0,0.4-0.1v0.9
			c0.1-0.4,0.3-0.6,0.6-0.8C87.2,99.8,87.4,99.7,87.7,99.7z"/>
		<path fill="#FFFFFF" d="M91.1,98.5v1.3h1.2v0.2h-1.2v3.1c0,0.2,0,0.4,0.1,0.5c0.1,0.1,0.2,0.2,0.4,0.2s0.3-0.1,0.4-0.2
			c0.1-0.1,0.2-0.3,0.3-0.7l0.2,0c-0.1,0.3-0.2,0.6-0.3,0.8c-0.2,0.2-0.4,0.3-0.7,0.3c-0.2,0-0.3,0-0.4-0.1c-0.1,0-0.2-0.1-0.3-0.2
			c-0.1-0.1-0.2-0.3-0.2-0.4c0-0.2-0.1-0.4-0.1-0.7V100h-0.8v-0.2h0.8v-1.2c0.1,0,0.3,0,0.4,0C90.8,98.6,91,98.6,91.1,98.5z"/>
		<path fill="#FFFFFF" d="M94,99.7c0.2,0,0.4,0,0.5,0.1c0.1,0.1,0.3,0.1,0.3,0.2c0.2,0.1,0.3,0,0.3-0.3h0.2c0,0.1,0,0.3,0,0.5
			c0,0.2,0,0.5,0,0.8h-0.2c0-0.2-0.1-0.4-0.2-0.6c-0.1-0.2-0.2-0.3-0.3-0.5c-0.1-0.1-0.3-0.2-0.6-0.2c-0.2,0-0.3,0.1-0.5,0.2
			c-0.1,0.1-0.2,0.3-0.2,0.5c0,0.2,0,0.3,0.1,0.4s0.2,0.2,0.4,0.3c0.2,0.1,0.3,0.2,0.5,0.3c0.3,0.2,0.6,0.4,0.8,0.6
			c0.2,0.2,0.3,0.5,0.3,0.8c0,0.2-0.1,0.4-0.2,0.6c-0.1,0.2-0.3,0.3-0.5,0.4c-0.2,0.1-0.4,0.1-0.7,0.1c-0.1,0-0.2,0-0.3,0
			c-0.1,0-0.2,0-0.3-0.1c-0.1,0-0.1-0.1-0.2-0.1c-0.1,0-0.1-0.1-0.2-0.1c-0.1,0-0.1,0-0.1,0c0,0-0.1,0.1-0.1,0.3h-0.2
			c0-0.2,0-0.4,0-0.6c0-0.2,0-0.6,0-1H93c0,0.3,0.1,0.6,0.2,0.8s0.2,0.4,0.3,0.5c0.1,0.1,0.4,0.2,0.6,0.2c0.2,0,0.3-0.1,0.5-0.2
			c0.2-0.1,0.2-0.3,0.2-0.6c0-0.2-0.1-0.4-0.3-0.6s-0.4-0.3-0.6-0.5c-0.2-0.1-0.4-0.2-0.5-0.4c-0.2-0.1-0.3-0.3-0.4-0.4
			c-0.1-0.2-0.2-0.3-0.2-0.6c0-0.2,0.1-0.4,0.2-0.6c0.1-0.2,0.3-0.3,0.4-0.3C93.6,99.8,93.8,99.7,94,99.7z"/>
		<path fill="#FFFFFF" d="M96.9,103c0.1,0,0.3,0.1,0.4,0.2c0.1,0.1,0.2,0.2,0.2,0.4c0,0.1-0.1,0.3-0.2,0.4c-0.1,0.1-0.2,0.2-0.4,0.2
			c-0.1,0-0.3-0.1-0.4-0.2s-0.2-0.2-0.2-0.4c0-0.1,0.1-0.3,0.2-0.4S96.8,103,96.9,103z"/>
	</g>
	<g>
		<g>
			<g>
				<path fill="#FFFFFF" d="M58.5,22.9c0,3-1.7,6.3-7.3,6.3h-4.9v-0.3h1.5V16.9h-1.5v-0.3h4.9C56.8,16.6,58.5,19.9,58.5,22.9z
					 M56.4,22.9c0-1.9-0.5-6-5.2-6h-1.5v12.1h1.5C55.9,28.9,56.4,24.8,56.4,22.9z"/>
			</g>
			<g>
				<path fill="#FFFFFF" d="M64.1,40.8l-1.2,3.9h-8.8v-0.3h1.5V32.3h-1.5V32h8.3l1.2,3.3h-0.3c-0.9-2.3-2.2-3-4.3-3h-1.4V38h1.1
					c1.9,0,2-0.6,2.1-2.2h0.3v4.8h-0.3c-0.1-1.6-0.3-2.2-2.1-2.2h-1.1v6.1h2c2.1,0,3.3-1.3,4.1-3.6H64.1z M60.8,28l-2.1,2.8h-0.3
					l1-2.8L60.8,28z"/>
			</g>
		</g>
		<g>
			<path fill="#FFFFFF" d="M55.1,54.2c-10.3,0-18.6-7.9-18.6-17.6V22.9c0-9.7,8.3-17.6,18.6-17.6c10.3,0,18.6,7.9,18.6,17.6v13.7
				C73.7,46.3,65.3,54.2,55.1,54.2z M55.1,5.7c-10.1,0-18.2,7.7-18.2,17.2v13.7c0,9.5,8.2,17.2,18.2,17.2s18.2-7.7,18.2-17.2V22.9
				C73.3,13.4,65.1,5.7,55.1,5.7z"/>
		</g>
		<g>
			<path fill="#FFFFFF" d="M55.1,52.4c-9.3,0-16.8-7.1-16.8-15.8V22.9c0-8.7,7.5-15.8,16.8-15.8c9.3,0,16.8,7.1,16.8,15.8v13.7
				C71.9,45.3,64.4,52.4,55.1,52.4z M55.1,7.5c-9.1,0-16.4,6.9-16.4,15.4v13.7C38.6,45.1,46,52,55.1,52c9.1,0,16.4-6.9,16.4-15.4
				V22.9C71.5,14.4,64.2,7.5,55.1,7.5z"/>
		</g>
	</g>
</g>
</svg>
